<svg width="24" height="24" viewBox="0 0 24 24" fill="none" xmlns="http://www.w3.org/2000/svg">
<path d="M14 2.20004C13.3538 2.06886 12.6849 2 12 2C6.47715 2 2 6.47715 2 12C2 13.5997 2.37562 15.1116 3.04346 16.4525C3.22094 16.8088 3.28001 17.2161 3.17712 17.6006L2.58151 19.8267C2.32295 20.793 3.20701 21.677 4.17335 21.4185L6.39939 20.8229C6.78393 20.72 7.19121 20.7791 7.54753 20.9565C8.88836 21.6244 10.4003 22 12 22C17.5228 22 22 17.5228 22 12C22 11.3151 21.9311 10.6462 21.8 10M18 3C18.2371 4.67884 18.9743 5.71393 21 6C19.0778 6.27145 18.2482 7.24257 18 9C17.7518 7.24257 16.9222 6.27145 15 6C16.9222 5.72855 17.7518 4.75743 18 3Z" stroke="#6F7A90" stroke-linecap="round" stroke-linejoin="round"/>
</svg>
