<svg width="38" height="24" viewBox="0 0 38 24" fill="none" xmlns="http://www.w3.org/2000/svg">
<g clip-path="url(#clip0_7507_2996)">
<path d="M37.4997 7.90504H-0.000244141V0.361913C-0.000244141 0.00485754 0.289282 -0.284668 0.646337 -0.284668H36.8532C37.2102 -0.284668 37.4998 0.00485754 37.4998 0.361913L37.4997 7.90504Z" fill="#73AF00"/>
<path d="M36.8531 24.2844H0.646337C0.289282 24.2844 -0.000244141 23.9948 -0.000244141 23.6378V16.0947H37.4997V23.6378C37.4997 23.9949 37.2102 24.2844 36.8531 24.2844Z" fill="#FF4B55"/>
<path d="M37.4997 7.90527H-0.000244141V16.0945H37.4997V7.90527Z" fill="#FFE15A"/>
<path d="M26.5095 12.0075C26.5095 16.2867 23.0353 19.7671 18.7499 19.7671C14.4645 19.7671 10.9902 16.2867 10.9902 12.0075C10.9902 7.71593 14.4645 4.2417 18.7499 4.2417C23.0353 4.2417 26.5095 7.71593 26.5095 12.0075Z" fill="#4173CD"/>
<path d="M12.8484 10.0564H17.3569L18.3771 6.91672L18.648 7.75886L17.1664 12.323L16.7251 12.001L17.1866 10.5829H13.5607L12.8484 10.0564ZM15.101 16.9986L16.4945 12.7132L13.8239 10.7686H14.7047L18.5862 13.5864L18.145 13.9084L16.9358 13.029L15.8134 16.4846L15.101 16.9986ZM22.3993 16.9986L18.7502 14.3482L16.0811 16.2865L16.3537 15.4567L20.232 12.6327L20.3977 13.1528L19.1915 14.0261L22.1254 16.1627L22.3993 16.9986ZM24.6519 10.0564L21.0059 12.7132L22.0262 15.853L21.314 15.3327L19.8339 10.7685H20.3758L20.837 12.1929L23.7725 10.0563H24.6519V10.0564H24.6519ZM18.7502 5.771L20.1437 10.0564H23.446L22.7323 10.5829H17.9359L18.1047 10.0564H19.6001L18.4777 6.60698L18.7502 5.771Z" fill="#F2DD30"/>
<path d="M18.8801 18.2128H18.6216V14.8501H18.8801V18.2128ZM24.6132 14.0386L21.4161 13.0045L21.4967 12.763L24.6953 13.7972L24.6132 14.0386ZM12.8855 14.0386L12.8049 13.7972L16.005 12.763L16.0841 13.0045L12.8855 14.0386ZM20.5291 9.77792L20.3184 9.62939L22.2956 6.91064L22.5015 7.05933L20.5291 9.77792ZM16.9759 9.77792L14.9956 7.05933L15.2047 6.91064L17.1803 9.62939L16.9759 9.77792Z" fill="#F2DD30"/>
</g>
<defs>
<clipPath id="clip0_7507_2996">
<rect width="37.5" height="24" rx="3" fill="white"/>
</clipPath>
</defs>
</svg>
