<svg width="38" height="24" viewBox="0 0 38 24" fill="none" xmlns="http://www.w3.org/2000/svg">
<g clip-path="url(#clip0_7507_2315)">
<path d="M37.4994 7.90504H-0.000488281V0.361913C-0.000488281 0.00485754 0.289038 -0.284668 0.646093 -0.284668H36.8529C37.21 -0.284668 37.4995 0.00485754 37.4995 0.361913L37.4994 7.90504Z" fill="#73AF00"/>
<path d="M36.8529 24.2844H0.646093C0.289038 24.2844 -0.000488281 23.9948 -0.000488281 23.6378V16.0947H37.4994V23.6378C37.4994 23.9949 37.2099 24.2844 36.8529 24.2844Z" fill="#FF4B55"/>
<path d="M37.4994 7.90527H-0.000488281V16.0945H37.4994V7.90527Z" fill="#F5F5F5"/>
<path d="M0.237988 24.1284L10.3443 16.106L10.3441 7.89412L0.237988 -0.12793C0.095532 -0.00935081 -0.000488281 0.162475 -0.000488281 0.362279V23.6381C-0.000488281 23.838 0.095532 24.0098 0.237988 24.1284Z" fill="#464655"/>
</g>
<defs>
<clipPath id="clip0_7507_2315">
<rect width="37.5" height="24" rx="3" fill="white"/>
</clipPath>
</defs>
</svg>
