<svg width="38" height="24" viewBox="0 0 38 24" fill="none" xmlns="http://www.w3.org/2000/svg">
<g clip-path="url(#clip0_7507_2647)">
<path d="M37.5002 7.90504H0.000244141V0.361912C0.000244141 0.00485748 0.28977 -0.284668 0.646825 -0.284668H36.8537C37.2107 -0.284668 37.5002 0.00485748 37.5002 0.361912L37.5002 7.90504Z" fill="#4173CD"/>
<path d="M36.8538 24.2844H0.647069C0.290014 24.2844 0.000488281 23.9948 0.000488281 23.6378V16.0947H37.5004V23.6378C37.5004 23.9949 37.2109 24.2844 36.8538 24.2844Z" fill="#4173CD"/>
<path d="M37.5002 7.90527H0.000244141V16.0945H37.5002V7.90527Z" fill="#F5F5F5"/>
<path d="M18.8435 10.9433L19.0748 11.6372L19.8062 11.6428C19.9009 11.6435 19.9401 11.7644 19.864 11.8206L19.2756 12.2551L19.4962 12.9524C19.5247 13.0427 19.422 13.1174 19.3449 13.0624L18.7499 12.6371L18.1549 13.0623C18.0779 13.1173 17.9751 13.0427 18.0036 12.9524L18.2242 12.255L17.6359 11.8206C17.5598 11.7643 17.5989 11.6435 17.6936 11.6427L18.425 11.6371L18.6563 10.9433C18.6864 10.8535 18.8134 10.8535 18.8435 10.9433Z" fill="#4173CD"/>
<path d="M12.2391 12.8056L12.4704 13.4994L13.2018 13.5051C13.2965 13.5058 13.3356 13.6267 13.2595 13.6829L12.6712 14.1174L12.8918 14.8147C12.9204 14.905 12.8176 14.9797 12.7405 14.9247L12.1455 14.4994L11.5504 14.9247C11.4734 14.9797 11.3706 14.905 11.3991 14.8147L11.6197 14.1174L11.0314 13.6829C10.9553 13.6267 10.9945 13.5058 11.0892 13.5051L11.8205 13.4994L12.0519 12.8056C12.082 12.7158 12.2091 12.7158 12.2391 12.8056Z" fill="#4173CD"/>
<path d="M12.2391 9.08145L12.4704 9.77527L13.2017 9.78091C13.2965 9.78165 13.3356 9.90249 13.2595 9.95874L12.6712 10.3932L12.8918 11.0906C12.9204 11.1809 12.8176 11.2555 12.7405 11.2005L12.1455 10.7752L11.5504 11.2005C11.4734 11.2555 11.3706 11.1809 11.3991 11.0906L11.6197 10.3932L11.0314 9.95874C10.9553 9.90249 10.9945 9.78165 11.0892 9.78091L11.8205 9.77527L12.0519 9.08145C12.082 8.99173 12.2091 8.99173 12.2391 9.08145Z" fill="#4173CD"/>
<path d="M25.4476 12.8056L25.679 13.4994L26.4103 13.5051C26.505 13.5058 26.5442 13.6267 26.4681 13.6829L25.8797 14.1174L26.1004 14.8147C26.1289 14.905 26.0262 14.9797 25.949 14.9247L25.354 14.4994L24.759 14.9247C24.6819 14.9797 24.5792 14.905 24.6077 14.8147L24.8283 14.1174L24.2399 13.6829C24.1637 13.6267 24.203 13.5058 24.2977 13.5051L25.029 13.4994L25.2604 12.8056C25.2906 12.7158 25.4177 12.7158 25.4476 12.8056Z" fill="#4173CD"/>
<path d="M25.4476 9.08145L25.679 9.77527L26.4103 9.78091C26.505 9.78165 26.5442 9.90249 26.4681 9.95874L25.8797 10.3932L26.1004 11.0906C26.1289 11.1809 26.0262 11.2555 25.949 11.2005L25.354 10.7752L24.759 11.2005C24.6819 11.2555 24.5792 11.1809 24.6077 11.0906L24.8283 10.3932L24.2399 9.95874C24.1637 9.90249 24.203 9.78165 24.2977 9.78091L25.029 9.77527L25.2604 9.08145C25.2906 8.99173 25.4177 8.99173 25.4476 9.08145Z" fill="#4173CD"/>
</g>
<defs>
<clipPath id="clip0_7507_2647">
<rect width="37.5" height="24" rx="3" fill="white"/>
</clipPath>
</defs>
</svg>
