<svg width="24" height="24" viewBox="0 0 24 24" fill="none" xmlns="http://www.w3.org/2000/svg">
<path d="M22.4998 9.78638C22.4928 9.51032 22.2633 9.29223 21.9873 9.29924C21.7112 9.30626 21.4931 9.53573 21.5002 9.81178L22.4998 9.78638ZM13 4.5C13.2761 4.5 13.5 4.27614 13.5 4C13.5 3.72386 13.2761 3.5 13 3.5V4.5ZM6.32009 7.61589C6.10795 7.43911 5.79267 7.46777 5.61589 7.67991C5.43911 7.89205 5.46777 8.20733 5.67991 8.38411L6.32009 7.61589ZM8.1589 9.79908L8.47899 9.41497V9.41497L8.1589 9.79908ZM16.1612 10.1832C16.3733 10.0064 16.402 9.69112 16.2252 9.47899C16.0484 9.26685 15.7332 9.23819 15.521 9.41497L16.1612 10.1832ZM22 6.50003C22.2761 6.50003 22.5 6.27617 22.5 6.00003C22.5 5.72388 22.2761 5.50003 22 5.50003V6.50003ZM16 5.50003C15.7239 5.50003 15.5 5.72388 15.5 6.00003C15.5 6.27617 15.7239 6.50003 16 6.50003V5.50003ZM19.5 3C19.5 2.72386 19.2761 2.5 19 2.5C18.7239 2.5 18.5 2.72386 18.5 3H19.5ZM18.5 9C18.5 9.27614 18.7239 9.5 19 9.5C19.2761 9.5 19.5 9.27614 19.5 9H18.5ZM14 20V19.5H10V20V20.5H14V20ZM10 20V19.5C8.10025 19.5 6.72573 19.4989 5.67754 19.358C4.64373 19.219 4.00253 18.9523 3.52513 18.4749L3.17157 18.8284L2.81802 19.182C3.51219 19.8762 4.39959 20.1952 5.54429 20.3491C6.6746 20.5011 8.12852 20.5 10 20.5V20ZM2 12H1.5C1.5 13.8715 1.49894 15.3254 1.65091 16.4557C1.80481 17.6004 2.12385 18.4878 2.81802 19.182L3.17157 18.8284L3.52513 18.4749C3.04772 17.9975 2.78098 17.3563 2.64199 16.3225C2.50106 15.2743 2.5 13.8998 2.5 12H2ZM22 12H21.5C21.5 13.8998 21.4989 15.2743 21.358 16.3225C21.219 17.3563 20.9523 17.9975 20.4749 18.4749L20.8284 18.8284L21.182 19.182C21.8762 18.4878 22.1952 17.6004 22.3491 16.4557C22.5011 15.3254 22.5 13.8715 22.5 12H22ZM14 20V20.5C15.8715 20.5 17.3254 20.5011 18.4557 20.3491C19.6004 20.1952 20.4878 19.8762 21.182 19.182L20.8284 18.8284L20.4749 18.4749C19.9975 18.9523 19.3563 19.219 18.3225 19.358C17.2743 19.4989 15.8998 19.5 14 19.5V20ZM10 4V3.5C8.12852 3.5 6.67461 3.49894 5.54429 3.65091C4.39959 3.80481 3.51219 4.12385 2.81802 4.81802L3.17157 5.17157L3.52513 5.52513C4.00253 5.04772 4.64373 4.78098 5.67754 4.64199C6.72573 4.50106 8.10025 4.5 10 4.5V4ZM2 12H2.5C2.5 10.1002 2.50106 8.72573 2.64199 7.67754C2.78098 6.64373 3.04772 6.00253 3.52513 5.52513L3.17157 5.17157L2.81802 4.81802C2.12385 5.51219 1.80481 6.39959 1.65091 7.54429C1.49894 8.67461 1.5 10.1285 1.5 12H2ZM22 12H22.5C22.5 11.0729 22.5185 10.5207 22.4998 9.78638L22 9.79908L21.5002 9.81178C21.5185 10.5316 21.5 11.0355 21.5 12H22ZM10 4V4.5H13V4V3.5H10V4ZM6 8L5.67991 8.38411L7.8388 10.1832L8.1589 9.79908L8.47899 9.41497L6.32009 7.61589L6 8ZM8.1589 9.79908L7.8388 10.1832C8.74736 10.9403 9.46343 11.5382 10.0904 11.9415C10.7291 12.3522 11.3249 12.5949 12 12.5949V12.0949V11.5949C11.5889 11.5949 11.1826 11.4549 10.6313 11.1004C10.0685 10.7384 9.40707 10.1884 8.47899 9.41497L8.1589 9.79908ZM15.8411 9.79908L15.521 9.41497C14.5929 10.1884 13.9315 10.7384 13.3687 11.1004C12.8174 11.4549 12.4111 11.5949 12 11.5949V12.0949V12.5949C12.6751 12.5949 13.2709 12.3522 13.9096 11.9415C14.5366 11.5382 15.2526 10.9403 16.1612 10.1832L15.8411 9.79908ZM22 6.00003V5.50003H19V6.00003V6.50003H22V6.00003ZM19 6.00003V5.50003H16V6.00003V6.50003H19V6.00003ZM19 3H18.5V6.00003H19H19.5V3H19ZM19 6.00003H18.5V9H19H19.5V6.00003H19Z" fill="#6F7A90"/>
</svg>
